<svg width="207" height="215" viewBox="0 0 207 215" fill="none" xmlns="http://www.w3.org/2000/svg">
<g clip-path="url(#clip0_1_277)">
<g clip-path="url(#clip1_1_277)">
<g clip-path="url(#clip2_1_277)">
<path d="M103.401 214.267C160.508 214.267 206.802 167.973 206.802 110.866C206.802 53.7595 160.508 7.46533 103.401 7.46533C46.2942 7.46533 0 53.7595 0 110.866C0 167.973 46.2942 214.267 103.401 214.267Z" fill="#1322E2"/>
<path d="M188.445 83.7484L135.849 75.9574L134.073 49.2905C133.444 39.9414 127.047 31.9864 118.053 29.3757C113.338 28.0089 108.499 31.0843 107.72 35.9229L105.328 67.5924C104.535 72.554 98.8356 81.8485 95.3365 85.4569L81.6682 99.5626C63.6123 111.167 24.4115 136.139 6.69739 147.525C20.1744 181.34 49.6296 209.675 96.266 214.035C96.6624 214.076 97.5645 214.281 97.9745 214.281L132.159 178.511C137.913 176.666 142.684 175.121 147.604 172.661L183.074 159.211L182.431 135.182L180.381 107.477L188.459 83.7894L188.445 83.7484Z" fill="#E28B74"/>
<path d="M132.145 178.484L94.3387 151.01L106.422 202.772L132.145 178.484Z" fill="#C16452"/>
<path d="M136.164 79.5111C136.164 79.5111 136.875 127.61 120.705 136.85C143.025 144.545 149.19 152.24 149.19 152.24L136.164 79.5111Z" fill="#C16452"/>
<path d="M169.542 148.933C147.768 130.904 115.074 139.734 114.746 139.829L114.377 138.517C114.718 138.422 148.083 129.401 170.417 147.88L169.542 148.933Z" fill="#263E65"/>
<path d="M82.4063 128.731C74.629 115.514 80.7524 99.9317 81.0121 99.2893L82.2833 99.795C82.2149 99.9454 76.1462 115.404 83.5818 128.034L82.4063 128.731Z" fill="#263E65"/>
<path d="M139.239 79.5112C150.967 78.4041 175.132 77.0099 186.504 82.6822C188.131 83.4887 189.265 85.1015 189.58 86.9741C190.249 90.9653 189.675 94.5737 188.937 97.1707C188.24 99.6583 186.026 101.299 183.579 101.23L139.718 100.164C135.535 100.068 132.2 96.3506 132.309 91.9084L132.419 87.2475C132.514 83.188 135.439 79.8666 139.239 79.5112Z" fill="#ED9583"/>
<path d="M135.877 104.77L134.879 111.003C134.182 115.35 137.162 119.409 141.303 119.778L179.561 123.127C183.128 123.441 186.217 120.598 186.45 116.798L186.955 108.174C187.174 104.401 184.454 101.135 180.9 100.916L143.217 98.5649C139.636 98.3462 136.478 101.012 135.89 104.757L135.877 104.77Z" fill="#ED9583"/>
<path d="M139.813 116.716L134.811 123.004C133.608 124.521 132.993 126.462 133.088 128.458L133.362 133.939C133.58 138.121 136.834 141.401 140.77 141.388L179.725 141.319C183.429 141.319 186.422 138.121 186.395 134.171L186.354 126.271C186.327 122.484 183.538 119.354 179.971 119.136L139.813 116.703V116.716Z" fill="#ED9583"/>
<path d="M139.403 137.479L137.312 138.927C135.084 140.472 133.703 143.083 133.621 145.926L133.471 150.764C133.321 155.63 136.956 159.69 141.535 159.826C154.001 160.182 173.205 160.141 182.499 159.662C186.873 159.444 186.313 149.206 184.632 143.452C183.743 140.431 181.133 138.34 178.153 138.285L139.403 137.479Z" fill="#ED9583"/>
<path d="M180.832 101.613C166.726 100.588 140.005 100.847 139.731 100.861V99.4943C139.991 99.4943 166.767 99.2209 180.928 100.246L180.832 101.613Z" fill="#263E65"/>
<path d="M141.385 120.461L141.235 119.108C141.44 119.081 161.724 116.894 180.039 118.48L179.916 119.846C161.737 118.275 141.576 120.448 141.371 120.475L141.385 120.461Z" fill="#263E65"/>
<path d="M178.262 140.281C164.471 138.135 142.082 139.556 141.864 139.57L141.781 138.203C142.014 138.189 164.553 136.768 178.481 138.927L178.276 140.281H178.262Z" fill="#263E65"/>
<path opacity="0.8" d="M137.189 84.1721L137.695 93.9996C137.695 93.9996 143.053 93.7262 142.779 88.5596C142.52 83.3793 137.189 84.1721 137.189 84.1721Z" fill="white"/>
<path opacity="0.8" d="M139.212 104.811L139.718 114.639C139.718 114.639 145.076 114.365 144.802 109.199C144.542 104.018 139.212 104.811 139.212 104.811Z" fill="white"/>
<path opacity="0.8" d="M137.804 125.122L138.31 134.95C138.31 134.95 143.668 134.677 143.394 129.51C143.135 124.33 137.804 125.122 137.804 125.122Z" fill="white"/>
<path opacity="0.8" d="M138.31 144.805L138.815 154.632C138.815 154.632 144.173 154.359 143.9 149.192C143.64 144.012 138.31 144.805 138.31 144.805Z" fill="white"/>
<path d="M78.7438 27.1736H75.2649V23.6947C75.2649 23.6947 75.2649 4.47913 69.1359 4.47913C63.0069 4.47913 63.0069 23.6947 63.0069 23.6947V27.1736H59.5281C59.5281 27.1736 40.3125 27.1736 40.3125 33.3026C40.3125 39.4316 59.5281 39.4316 59.5281 39.4316H63.0069V42.9104C63.0069 42.9104 63.0069 62.126 69.1359 62.126C75.2649 62.126 75.2649 42.9104 75.2649 42.9104V39.4316H78.7438C78.7438 39.4316 97.9594 39.4316 97.9594 33.3026C97.9594 27.1736 78.7438 27.1736 78.7438 27.1736Z" fill="#0080FF"/>
<path d="M150.269 13.3554H148.223V11.3099C148.223 11.3099 148.223 0 144.617 0C141.012 0 141.012 11.3099 141.012 11.3099V13.3554H138.966C138.966 13.3554 127.656 13.3554 127.656 16.9611C127.656 20.5668 138.966 20.5668 138.966 20.5668H141.012V22.6123C141.012 22.6123 141.012 33.9222 144.617 33.9222C148.223 33.9222 148.223 22.6123 148.223 22.6123V20.5668H150.269C150.269 20.5668 161.578 20.5668 161.578 16.9611C161.578 13.3554 150.269 13.3554 150.269 13.3554Z" fill="#0080FF"/>
<path d="M166.18 53.5146C166.442 56.9337 163.881 59.9123 160.462 60.1736C157.043 60.4349 154.064 57.8743 153.803 54.4552C153.542 51.0361 156.102 48.0575 159.521 47.7962C162.941 47.5349 165.919 50.0955 166.18 53.5146Z" fill="#0080FF"/>
<path d="M92.309 66.845C92.4284 68.4202 91.2489 69.7938 89.6737 69.9132C88.0986 70.0327 86.7249 68.8531 86.6055 67.278C86.4861 65.7028 87.6656 64.3292 89.2407 64.2097C90.8159 64.0903 92.1895 65.2698 92.309 66.845Z" fill="#0080FF"/>
</g>
</g>
</g>
<defs>
<clipPath id="clip0_1_277">
<rect width="207" height="215" fill="white"/>
</clipPath>
<clipPath id="clip1_1_277">
<rect width="207" height="215" fill="white"/>
</clipPath>
<clipPath id="clip2_1_277">
<rect width="207" height="215" fill="white"/>
</clipPath>
</defs>
</svg>
